<?xml version="1.0" encoding="UTF-8"?>
<svg version="1.1" xmlns="http://www.w3.org/2000/svg" width="512" height="512">
<path d="M0 0 C1.43828873 0.87370292 2.87582112 1.74865244 4.3125 2.625 C6.69652662 4.05901993 6.69652662 4.05901993 9.3125 4.625 C11.97197022 3.60410334 11.97197022 3.60410334 14.4375 1.8125 C21.93956808 -3.16987652 29.5312014 -3.19566121 38.3125 -2.375 C46.05507664 -0.49050638 51.99721704 4.44639119 56.6171875 10.7890625 C60.23234838 16.74025688 62.42921014 23.35074948 64.81283569 29.86242676 C66.3386912 34.02755816 67.89574116 38.18104695 69.44921875 42.3359375 C69.76963638 43.19493652 70.09005402 44.05393555 70.42018127 44.93896484 C73.66954363 53.62855408 77.07308206 62.25424032 80.5 70.875 C94.30318348 105.6749817 107.98865198 140.53006845 120.64447021 175.7666626 C121.25990003 177.47867644 121.87904466 179.18935367 122.49853516 180.89990234 C130.44313848 202.97889506 134.52336589 224.51651245 134.5 247.9375 C134.50039276 248.7721579 134.50078552 249.6068158 134.50119019 250.46676636 C134.48691562 276.20016219 133.29794331 301.96922441 131.3125 327.625 C132.05636963 327.90335693 132.80023926 328.18171387 133.56665039 328.46850586 C136.03937387 329.50996501 138.03775209 330.62520633 140.24609375 332.12890625 C140.97135254 332.61842773 141.69661133 333.10794922 142.44384766 333.61230469 C143.20487793 334.13211914 143.9659082 334.65193359 144.75 335.1875 C146.34961323 336.26788592 147.94988233 337.34730136 149.55078125 338.42578125 C150.34693848 338.96283691 151.1430957 339.49989258 151.96337891 340.05322266 C155.42700138 342.37070359 158.92690154 344.62952351 162.4375 346.875 C163.0348999 347.2572876 163.6322998 347.6395752 164.24780273 348.03344727 C165.60186213 348.89861378 166.95703599 349.76203577 168.3125 350.625 C169.03953125 350.04492188 169.03953125 350.04492188 169.78125 349.453125 C180.79405734 340.89702084 190.47477595 338.47706425 204.3125 339.625 C212.06686113 341.19588348 218.23859853 345.64089483 223.3125 351.625 C228.83331965 360.46295078 231.92972221 369.6280272 229.81640625 380.078125 C227.28147903 389.415823 222.39219534 396.03634318 215.5 402.6875 C214.92185547 403.26048828 214.34371094 403.83347656 213.74804688 404.42382812 C210.06525179 408.04151302 206.24229839 411.46123313 202.34155273 414.84106445 C198.89644438 417.86999078 195.5782185 421.0313633 192.25 424.1875 C190.75154786 425.60312478 189.25284522 427.01848445 187.75390625 428.43359375 C187.00898926 429.13726074 186.26407227 429.84092773 185.49658203 430.56591797 C182.23739993 433.63856964 178.96388552 436.69571291 175.6875 439.75 C175.07704834 440.31920166 174.46659668 440.88840332 173.83764648 441.47485352 C172.61028502 442.61908109 171.3828278 443.76320594 170.15527344 444.90722656 C167.03956094 447.81159237 163.92615889 450.71843299 160.8125 453.625 C159.56251082 454.79167826 158.31251083 455.95834493 157.0625 457.125 C156.44375 457.7025 155.825 458.28 155.1875 458.875 C148.3125 465.29166667 141.4375 471.70833333 134.5625 478.125 C133.94318604 478.7032251 133.32387207 479.2814502 132.68579102 479.87719727 C131.44228909 481.03739931 130.19799204 482.19674976 128.95288086 483.35522461 C125.72123749 486.36411285 122.50695541 489.3889358 119.31640625 492.44140625 C118.65640625 493.06853516 117.99640625 493.69566406 117.31640625 494.34179688 C116.06765239 495.52899244 114.82373748 496.72130988 113.5859375 497.91992188 C103.85448172 507.13746931 94.86610987 510.26316214 81.515625 509.9296875 C72.88494899 509.46554892 66.58239657 505.93107229 60.359375 500.0390625 C53.95168639 492.48190303 50.97223579 483.69789842 51.0859375 473.84375 C51.59105051 468.89712599 53.11339926 463.92115035 55.4140625 459.515625 C56.52710453 457.52227071 56.52710453 457.52227071 56.3125 454.625 C54.03337259 452.62456023 54.03337259 452.62456023 51.0625 450.625 C32.89300969 437.51704929 18.0978704 420.44801735 9.3125 399.625 C9.3125 398.965 9.3125 398.305 9.3125 397.625 C8.6525 397.625 7.9925 397.625 7.3125 397.625 C7.05082031 398.47320312 6.78914062 399.32140625 6.51953125 400.1953125 C1.8407297 413.48977127 -6.47950113 424.15673158 -15.6875 434.625 C-16.36425781 435.40488281 -17.04101562 436.18476563 -17.73828125 436.98828125 C-24.13615328 443.84010429 -32.1384548 449.12812243 -39.6875 454.625 C-39.13169844 457.74603955 -38.45138428 460.17593668 -37.1875 463.125 C-33.65887424 471.35846011 -33.7834268 480.1920182 -36.6875 488.625 C-40.7387768 497.3139226 -46.45142437 503.8361567 -55.125 508.0625 C-63.62687066 511.09794377 -74.58267048 511.11591312 -83.125 508.1875 C-88.86014741 505.4164776 -93.16534177 501.0217261 -97.6875 496.625 C-99.18649826 495.23267582 -100.69553275 493.8517998 -102.20532227 492.47119141 C-109.07573872 486.18209379 -115.85400219 479.79296646 -122.64453125 473.41796875 C-126.50672077 469.79271201 -130.37670379 466.17588433 -134.25 462.5625 C-134.86472168 461.98902832 -135.47944336 461.41555664 -136.11279297 460.82470703 C-137.35135609 459.6693868 -138.58996277 458.51411326 -139.82861328 457.35888672 C-142.94896303 454.44836349 -146.06817102 451.53661713 -149.1875 448.625 C-150.43749459 447.45832754 -151.68749459 446.29166087 -152.9375 445.125 C-160.4375 438.125 -160.4375 438.125 -162.31298828 436.37451172 C-163.56131737 435.20942625 -164.80968967 434.04438709 -166.05810547 432.87939453 C-169.20902888 429.93891631 -172.35916566 426.99760346 -175.5078125 424.0546875 C-176.77600028 422.86974737 -178.0442292 421.68485127 -179.3125 420.5 C-179.93133057 419.92169434 -180.55016113 419.34338867 -181.18774414 418.74755859 C-184.76210782 415.41073323 -188.35075487 412.09036826 -191.95458984 408.78540039 C-193.5777724 407.29341046 -195.19418617 405.79444359 -196.80859375 404.29296875 C-198.55560664 402.67395952 -200.31536347 401.06836901 -202.09765625 399.48828125 C-209.56151758 392.61036792 -213.36913246 383.99235071 -213.875 373.875 C-213.67165575 364.00356078 -210.46748884 355.99992307 -203.8671875 348.578125 C-195.9137719 341.04331022 -187.63337418 339.01452421 -176.94775391 339.15429688 C-166.55079147 339.58933559 -160.05443532 343.46034442 -152.6875 350.625 C-143.978088 346.11140511 -135.97638141 340.54604924 -127.87963867 335.04077148 C-126.07986399 333.81892997 -124.27645567 332.60260733 -122.47265625 331.38671875 C-120.87756226 330.303302 -120.87756226 330.303302 -119.25024414 329.19799805 C-116.6875 327.625 -116.6875 327.625 -114.6875 327.625 C-114.74284912 326.64966309 -114.79819824 325.67432617 -114.85522461 324.66943359 C-115.3501729 315.92893225 -115.83621671 307.18799378 -116.31170654 298.44641113 C-116.5427957 294.21080846 -116.78445502 289.97622317 -117.04296875 285.7421875 C-117.69106189 274.53534765 -117.84344671 263.31573109 -117.91766357 252.09240723 C-117.93061457 250.35904567 -117.94834384 248.62571136 -117.97149658 246.89245605 C-118.17201474 230.72523425 -116.40650777 215.08187333 -111.9375 199.5 C-111.65801514 198.51064453 -111.37853027 197.52128906 -111.09057617 196.50195312 C-106.8099839 181.9710078 -101.39145734 167.78489138 -96.11328125 153.59375 C-95.82800064 152.82269928 -95.54272003 152.05164856 -95.24879456 151.25723267 C-88.62509681 133.5937984 -88.62509681 133.5937984 -82.6875 130.625 C-80.3545134 130.58477609 -78.02043334 130.58179753 -75.6875 130.625 C-75.51734375 130.01914063 -75.3471875 129.41328125 -75.171875 128.7890625 C-73.57219371 123.25824952 -71.69781694 117.96028204 -69.45703125 112.65625 C-68.56940843 110.67530811 -68.56940843 110.67530811 -68.6875 108.625 C-69.99950404 107.27067325 -71.33381404 105.93766518 -72.6875 104.625 C-74.26205739 101.47588521 -74.03549118 99.10491184 -73.6875 95.625 C-71.6875 92.25 -71.6875 92.25 -68.6875 89.625 C-66.75 89.41796875 -66.75 89.41796875 -64.6875 89.4375 C-62.59625215 89.43907332 -62.59625215 89.43907332 -60.6875 88.625 C-58.34328613 85.21413868 -57.05995263 81.50929988 -55.6875 77.625 C-55.35621094 76.84382813 -55.02492187 76.06265625 -54.68359375 75.2578125 C-53.15308175 71.62027278 -52.35365876 69.3676016 -53.6875 65.625 C-54.1825 65.17125 -54.6775 64.7175 -55.1875 64.25 C-57.46344544 61.78439244 -57.46832446 59.96931642 -57.6875 56.625 C-57.0144382 53.53799072 -55.92773049 50.63952913 -54.8125 47.6875 C-54.49732422 46.82793701 -54.18214844 45.96837402 -53.85742188 45.08276367 C-53.17417155 43.23284683 -52.48347035 41.38566835 -51.78613281 39.54101562 C-50.65559356 36.54031321 -49.55807291 33.52868215 -48.4609375 30.515625 C-47.70514002 28.48883078 -46.94736741 26.46277187 -46.1875 24.4375 C-45.84477051 23.49463135 -45.50204102 22.5517627 -45.14892578 21.58032227 C-41.71296426 12.63108144 -36.43692828 4.17324142 -27.6875 -0.375 C-19.20107108 -3.79870952 -8.2666451 -4.21412435 0 0 Z M7.3125 73.625 C5.59208567 80.89004444 3.87912084 88.15680215 2.17571926 95.42585564 C1.38457676 98.80089757 0.59085354 102.17528926 -0.20874023 105.54833984 C-1.1272832 109.42367267 -2.03465191 113.30157861 -2.94140625 117.1796875 C-3.23092667 118.39429657 -3.52044708 119.60890564 -3.81874084 120.86032104 C-4.07908615 121.98133209 -4.33943146 123.10234314 -4.60766602 124.25732422 C-4.95741234 125.74291336 -4.95741234 125.74291336 -5.31422424 127.2585144 C-5.92413437 129.63599021 -5.92413437 129.63599021 -4.6875 131.625 C-2.4950627 132.78463626 -0.24472311 133.70471749 2.046875 134.65234375 C4.3125 135.625 4.3125 135.625 6.8125 137.1875 C11.25238881 137.96448054 14.64393853 134.90882718 18.3125 132.625 C19.6416457 131.95002302 20.97439792 131.28204266 22.3125 130.625 C20.6224568 123.15008514 18.93171242 115.67532914 17.24047852 108.20068359 C16.66512125 105.65742596 16.08992502 103.11413188 15.51489258 100.57080078 C14.68873667 96.91689638 13.86200336 93.26312304 13.03515625 89.609375 C12.64917015 87.90137726 12.64917015 87.90137726 12.25538635 86.15887451 C12.01521286 85.09807678 11.77503937 84.03727905 11.52758789 82.94433594 C11.31662979 82.01167908 11.10567169 81.07902222 10.88832092 80.11810303 C10.38685641 77.94693721 9.86166722 75.78451892 9.3125 73.625 C8.6525 73.625 7.9925 73.625 7.3125 73.625 Z " fill="#010101" transform="translate(247.6875,2.375)"/>
<path d="M0 0 C3.15236978 2.56130045 4.71951643 4.05778791 5.30078125 8.08276367 C5.33721763 15.34347098 3.82750535 21.87596063 2 28.875 C1.34969467 31.46020148 0.70211224 34.04592831 0.05859375 36.6328125 C-0.19453331 37.64468628 -0.19453331 37.64468628 -0.45277405 38.67700195 C-2.25210106 45.91620054 -3.85029706 53.19727475 -5.44204712 60.48440552 C-8.1273478 72.763681 -10.87756203 85.02747005 -13.79324341 97.25427246 C-14.13595674 98.69521939 -14.47576081 100.13686176 -14.81246948 101.57922363 C-15.27922916 103.57449014 -15.75712625 105.56675664 -16.23828125 107.55859375 C-16.641073 109.24940063 -16.641073 109.24940063 -17.05200195 110.97436523 C-18.46468952 115.48310513 -20.43403841 118.40771461 -23.6875 121.8125 C-40.07811488 140.93488403 -46.89602133 173.3187094 -54 197 C-54.27634277 197.91475098 -54.55268555 198.82950195 -54.83740234 199.77197266 C-55.60246746 202.34197453 -56.33903962 204.91801257 -57.0625 207.5 C-57.27890137 208.23500732 -57.49530273 208.97001465 -57.71826172 209.72729492 C-59.10421767 214.90164983 -59.36371568 219.76798837 -58 225 C-55.41408453 228.02921527 -53.91044732 228.84825878 -50 229.5 C-46.21547913 228.86924652 -44.75812097 227.64356643 -42 225 C-40.65221914 222.18039383 -40.65221914 222.18039383 -39.875 219 C-39.58367187 217.96875 -39.29234375 216.9375 -38.9921875 215.875 C-38.4355992 213.75512955 -37.91366729 211.63159441 -37.41357422 209.49755859 C-35.23676269 200.36621765 -32.35687872 191.51782155 -29.375 182.625 C-29.11121552 181.83540894 -28.84743103 181.04581787 -28.57565308 180.2322998 C-25.30791653 170.47757509 -21.9398978 160.78284742 -18.0625 151.25 C-17.72202637 150.40775879 -17.38155273 149.56551758 -17.03076172 148.69775391 C-11.57739712 135.71826475 -11.57739712 135.71826475 -6 132 C-1.90338824 132.07586318 0.47374659 132.66409357 3.9375 134.875 C8.43438651 141.68846441 5.80680085 151.79948948 4.75 159.5625 C2.94252558 173.6109009 1.65473441 187.70194097 0.35839844 201.80493164 C0.27564667 202.69731537 0.1928949 203.5896991 0.1076355 204.50912476 C-0.0481237 206.19100382 -0.20195403 207.87306309 -0.35348511 209.55532837 C-0.65441388 212.80529888 -0.99894968 215.99376532 -1.54150391 219.21435547 C-4.5034148 237.20977791 -1.38702961 256.45110904 1.53466797 274.25878906 C4.16807315 290.41126726 5.40005423 306.08864004 5.4375 322.4375 C5.44349213 323.30300476 5.44948425 324.16850952 5.45565796 325.0602417 C5.52143287 339.2787822 3.91500228 352.50943521 -0.6875 366.0625 C-0.94096191 366.81144531 -1.19442383 367.56039063 -1.45556641 368.33203125 C-8.6153626 388.53579926 -23.47823592 405.25585671 -40.5 417.9375 C-41.07508301 418.3809375 -41.65016602 418.824375 -42.24267578 419.28125 C-44.8359223 421.12628362 -46.33245106 422.10254208 -49.54296875 421.609375 C-52.703025 419.53951304 -55.23524914 417.04431871 -57.8125 414.3125 C-61.69098877 410.25795166 -65.68755517 406.47316282 -69.93579102 402.8059082 C-73.39876468 399.77626702 -76.72424864 396.60315082 -80.0625 393.4375 C-81.56095214 392.02187522 -83.05965478 390.60651555 -84.55859375 389.19140625 C-85.30351074 388.48773926 -86.04842773 387.78407227 -86.81591797 387.05908203 C-91.90043023 382.26556801 -97.01857405 377.50798478 -102.13085938 372.74414062 C-104.07401486 370.93093493 -106.0139102 369.11429417 -107.953125 367.296875 C-109.26034507 366.0728402 -110.56763563 364.84888068 -111.875 363.625 C-112.49850342 363.04057129 -113.12200684 362.45614258 -113.7644043 361.85400391 C-117.94249874 357.95027678 -122.19496347 354.1497547 -126.55859375 350.453125 C-128 349 -128 349 -128 347 C-125.83544922 345.35522461 -125.83544922 345.35522461 -122.8046875 343.40234375 C-121.70189453 342.68715576 -120.59910156 341.97196777 -119.46289062 341.23510742 C-118.87612549 340.85937592 -118.28936035 340.48364441 -117.68481445 340.0965271 C-115.87863444 338.93982754 -114.07835321 337.77443201 -112.27929688 336.60668945 C-107.28594498 333.37097189 -102.27851402 330.15936048 -97.2265625 327.015625 C-96.5783252 326.60965088 -95.93008789 326.20367676 -95.26220703 325.78540039 C-93.6287727 324.76772871 -91.98660811 323.76410619 -90.34375 322.76171875 C-87.7429337 320.80677183 -87.07803281 320.02767317 -86 317 C-85.88686963 314.2413736 -85.88358477 311.6020447 -85.98828125 308.8515625 C-86.01093552 308.04375336 -86.03358978 307.23594421 -86.05693054 306.40365601 C-86.13228344 303.81036546 -86.2223509 301.2178138 -86.3125 298.625 C-86.36225385 296.95054808 -86.41108997 295.27606863 -86.45898438 293.6015625 C-86.69381442 285.72726531 -86.99931293 277.8594976 -87.39292908 269.99154663 C-87.98339441 258.05126373 -88.21805176 246.12889814 -88.24023438 234.17431641 C-88.25007989 230.97403271 -88.2813314 227.77435708 -88.3125 224.57421875 C-88.36909997 213.5974819 -87.99991928 203.62148543 -85 193 C-84.63935457 191.49379321 -84.27984884 189.98731272 -83.921875 188.48046875 C-78.49169027 168.05308381 -70.94768911 147.68598531 -62.82324219 128.17382812 C-61.58777897 124.91150176 -61.56855184 122.45158528 -62 119 C-64.333492 116.16588845 -64.333492 116.16588845 -67 114 C-68 112 -68 112 -67.37915039 109.96875 C-67.03875732 109.1540625 -66.69836426 108.339375 -66.34765625 107.5 C-65.98349609 106.613125 -65.61933594 105.72625 -65.24414062 104.8125 C-64.85419922 103.884375 -64.46425781 102.95625 -64.0625 102 C-63.3003997 100.16790579 -62.54113977 98.33462666 -61.78515625 96.5 C-61.44363525 95.6853125 -61.10211426 94.870625 -60.75024414 94.03125 C-59.8845089 92.04820899 -59.8845089 92.04820899 -60 90 C-61.31200404 88.64567325 -62.64631404 87.31266518 -64 86 C-65.57455739 82.85088521 -65.34799118 80.47991184 -65 77 C-63 73.625 -63 73.625 -60 71 C-58.0625 70.79296875 -58.0625 70.79296875 -56 70.8125 C-53.90749245 70.79925901 -53.90749245 70.79925901 -52 70 C-49.61431625 66.61609595 -48.35763963 62.88932351 -47 59 C-46.60683594 57.95199219 -46.21367187 56.90398437 -45.80859375 55.82421875 C-44.84134022 53.22577809 -43.90709218 50.61992547 -43 48 C-40.11914062 48.1953125 -40.11914062 48.1953125 -37.23828125 48.390625 C-33.90813018 47.8094468 -32.43701863 46.33009107 -30 44 C-28.74672476 41.45415512 -27.74416492 39.1075389 -26.80859375 36.453125 C-26.40061302 35.35807648 -26.40061302 35.35807648 -25.98439026 34.24090576 C-25.12085659 31.91567219 -24.27831521 29.58353363 -23.4375 27.25 C-22.58940529 24.93230976 -21.73688666 22.61635713 -20.87989807 20.30194092 C-20.34958656 18.86603568 -19.82487093 17.4280456 -19.30699158 15.98760986 C-14.79718883 3.64742309 -14.79718883 3.64742309 -10.75 -0.0625 C-6.88062274 -1.38160588 -3.86340197 -1.37088457 0 0 Z " fill="#F3C4AE" transform="translate(239,21)"/>
<path d="M0 0 C4.52770783 1.72484108 5.87265541 4.3215071 7.91943359 8.57177734 C9.99504996 13.23605217 11.7297032 18.02595071 13.5 22.8125 C18.32074483 35.68275579 23.30201656 48.48635868 28.33242798 61.27603149 C53.38210665 124.96685774 53.38210665 124.96685774 64.27450562 154.48309326 C64.9096913 156.20335057 65.54697488 157.92283517 66.18667603 159.64141846 C70.14348199 170.28998148 73.66600427 180.96143091 76.47732544 191.97250366 C76.94992003 193.80573578 77.45442951 195.63066779 77.96264648 197.4543457 C80.71545302 208.31583081 80.4129062 219.18891131 80.3125 230.3125 C80.30379024 232.45467024 80.29533137 234.59684151 80.28710938 236.73901367 C80.17299534 255.49983009 79.45855884 274.23159746 78.57197571 292.96989441 C76.64393584 308.03801632 76.64393584 308.03801632 80 322 C82.36640712 323.72941199 84.69711131 325.28291381 87.1875 326.8125 C88.71151857 327.77251567 90.23492043 328.73351083 91.7578125 329.6953125 C92.58829102 330.21641602 93.41876953 330.73751953 94.27441406 331.27441406 C99.40625883 334.5234179 104.4799546 337.8621274 109.5625 341.1875 C111.56367244 342.49368823 113.56496393 343.7996941 115.56640625 345.10546875 C117.04429958 346.07026847 118.52217587 347.03509428 120 348 C118.3052459 351.6535823 116.37898937 353.66865082 113.3125 356.3125 C110.23899708 359.00677588 107.23206655 361.70195039 104.375 364.625 C102.10039741 366.94583435 99.75656011 369.11966193 97.29296875 371.23828125 C93.07256893 374.90911961 88.99572506 378.71410091 84.9375 382.5625 C83.43904786 383.97812478 81.94034522 385.39348445 80.44140625 386.80859375 C79.32403076 387.86409424 79.32403076 387.86409424 78.18408203 388.94091797 C74.92489953 392.01357002 71.65133067 395.07065355 68.375 398.125 C67.77252441 398.68695068 67.17004883 399.24890137 66.54931641 399.82788086 C63.3247563 402.83479824 60.09818796 405.83955272 56.87109375 408.84375 C56.19191895 409.47651855 55.51274414 410.10928711 54.81298828 410.76123047 C53.51638091 411.96922421 52.21921494 413.17661877 50.92138672 414.38330078 C50.33502441 414.92970215 49.74866211 415.47610352 49.14453125 416.0390625 C48.59490723 416.54727539 48.0452832 417.05548828 47.47900391 417.57910156 C46.19740773 418.81034781 45.00138323 420.12949473 43.82421875 421.4609375 C42 423 42 423 40.14453125 423.0078125 C18.04525207 412.6223589 1.1968683 390.42539441 -7 368 C-12.32895115 353.21304285 -13.38016608 338.73208083 -13.3125 323.1875 C-13.31167419 322.38273224 -13.31084839 321.57796448 -13.30999756 320.74880981 C-13.26941452 303.47987261 -11.31364263 286.80252165 -8.45947266 269.78833008 C-4.27092302 244.36993191 -6.03408961 219.63494162 -9.12930298 194.2434082 C-10.15678905 185.79584118 -11.08332272 177.33818816 -11.98254395 168.87609863 C-12.24333578 166.43732007 -12.51148327 163.99943147 -12.78027344 161.56152344 C-15.0789199 140.35556603 -15.0789199 140.35556603 -11.5625 135.9375 C-10.716875 135.298125 -9.87125 134.65875 -9 134 C-8.67 133.67 -8.34 133.34 -8 133 C-5.25 132.625 -5.25 132.625 -2 133 C7.35577173 140.98589491 11.40500365 155.00267754 15.4375 166.25 C15.66889679 166.88875061 15.90029358 167.52750122 16.13870239 168.18560791 C22.39041395 185.45325627 28.20491868 202.94158052 32.015625 220.92578125 C33.12529365 224.39129406 34.45813205 226.41097309 37 229 C40.91908586 230.14009771 43.03158504 230.40888632 46.8125 228.8125 C49.12651811 226.89517071 49.91250376 225.75903552 51 223 C51.35439264 215.25931875 48.71719577 207.52197237 46.5625 200.1875 C46.20978027 198.97481445 45.85706055 197.76212891 45.49365234 196.51269531 C40.11682628 178.32176312 33.96240179 160.38555343 26.8125 142.8125 C26.43303223 141.86342773 26.05356445 140.91435547 25.66259766 139.93652344 C22.57061635 132.55327887 18.66235921 125.54150721 12.86181641 119.93237305 C10.13699958 117.10429473 9.56114565 113.84214483 8.6875 110.125 C8.48366699 109.30620361 8.27983398 108.48740723 8.06982422 107.64379883 C7.36136311 104.76669158 6.67878131 101.88425073 6 99 C5.73815918 97.89672363 5.47631836 96.79344727 5.20654297 95.65673828 C3.57266978 88.75741989 1.96565242 81.85207066 0.37284851 74.94317627 C-0.98307506 69.06405034 -2.35646105 63.18910522 -3.73266602 57.31469727 C-4.61103525 53.55969885 -5.48367903 49.8034057 -6.35546875 46.046875 C-7.39966651 41.55199206 -8.46448907 37.06300975 -9.55078125 32.578125 C-10.01307215 30.63542888 -10.47531492 28.6927213 -10.9375 26.75 C-11.14906738 25.89986328 -11.36063477 25.04972656 -11.57861328 24.17382812 C-14.82640808 10.36448104 -14.82640808 10.36448104 -11.95922852 5.08276367 C-8.26266355 0.52445603 -5.74850691 -0.45086329 0 0 Z " fill="#F3C4AE" transform="translate(281,20)"/>
<path d="M0 0 C4.26469295 2.72979207 7.63848403 6.4826835 11.140625 10.1015625 C13.89080488 12.8949842 16.78592579 15.43404872 19.76171875 17.98046875 C22.23993052 20.16773742 24.52864167 22.51779879 26.84375 24.875 C28.70889674 26.70742487 30.64427746 28.41853135 32.625 30.125 C35.85456367 32.90739332 38.85822653 35.83519429 41.84375 38.875 C43.70889674 40.70742487 45.64427746 42.41853135 47.625 44.125 C50.85456367 46.90739332 53.85822653 49.83519429 56.84375 52.875 C58.70889674 54.70742487 60.64427746 56.41853135 62.625 58.125 C65.82095347 60.87843684 68.79730063 63.77177179 71.75024414 66.78149414 C73.55723688 68.55836641 75.41844934 70.21936873 77.33984375 71.87109375 C81.55789679 75.53900807 85.63250639 79.34102983 89.6875 83.1875 C94.08597193 87.35311165 98.48717306 91.51244355 102.95703125 95.6015625 C103.63822021 96.22732178 104.31940918 96.85308105 105.02124023 97.49780273 C106.30667266 98.67665767 107.59632938 99.85092883 108.89086914 101.01977539 C113.32450822 105.09867408 116.36082601 108.28517322 117.0625 114.5 C116.85957475 119.16728067 115.41171773 121.88493146 112.625 125.625 C108.87190176 128.26922831 105.32667453 129.30484381 100.69140625 129.09375 C93.89979524 127.5531199 88.71024292 120.8870902 84.09375 116.06640625 C81.41081045 113.4131828 78.59832599 110.96337728 75.74853516 108.49243164 C72.27200841 105.4351825 68.92141539 102.24774644 65.5625 99.0625 C64.06404786 97.64687522 62.56534522 96.23151555 61.06640625 94.81640625 C60.32148926 94.11273926 59.57657227 93.40907227 58.80908203 92.68408203 C55.54989993 89.61143036 52.27638552 86.55428709 49 83.5 C48.38954834 82.93079834 47.77909668 82.36159668 47.15014648 81.77514648 C45.92278502 80.63091891 44.6953278 79.48679406 43.46777344 78.34277344 C40.35206094 75.43840763 37.23865889 72.53156701 34.125 69.625 C32.87501082 68.45832174 31.62501083 67.29165507 30.375 66.125 C22.875 59.125 15.375 52.125 7.875 45.125 C7.25520264 44.5467749 6.63540527 43.9685498 5.99682617 43.37280273 C4.75638582 42.21455147 3.51695196 41.05522128 2.27856445 39.89477539 C-0.98494512 36.83940109 -4.26768426 33.80881353 -7.58203125 30.80859375 C-8.26910156 30.18146484 -8.95617187 29.55433594 -9.6640625 28.90820312 C-10.97931344 27.70848098 -12.30063388 26.51536745 -13.62890625 25.33007812 C-18.26570485 21.08135941 -20.13946983 18.09806683 -20.75 11.6875 C-20.62831017 7.38779273 -19.20025163 4.90840054 -16.375 1.625 C-11.26270346 -2.63524711 -5.86574327 -2.38974726 0 0 Z " fill="#FCBF43" transform="translate(75.375,363.375)"/>
<path d="M0 0 C3.66688987 1.3334145 6.37553045 3.27480955 8.9375 6.25 C10.79307036 11.0526527 10.59240175 15.14380786 9.0625 19.9375 C4.48777357 26.7302756 -1.92112539 32.01930518 -8.1015625 37.3203125 C-10.58959026 39.52165393 -12.89194077 41.88088515 -15.21875 44.25 C-17.71896185 46.70634849 -20.37680516 48.96309368 -23.03125 51.25 C-25.50610663 53.44987256 -27.80697648 55.7936491 -30.125 58.15625 C-31.93335089 59.93446171 -33.79602528 61.5968897 -35.71875 63.25 C-39.913149 66.89747094 -43.96650772 70.67628746 -48 74.5 C-49.49466552 75.91159192 -50.98946032 77.32304695 -52.484375 78.734375 C-53.23525391 79.44400391 -53.98613281 80.15363281 -54.75976562 80.88476562 C-63.47637649 89.11500936 -72.22443155 97.31124488 -81.04980469 105.42480469 C-84.11267803 108.24462299 -87.15694477 111.08294798 -90.1875 113.9375 C-90.90357422 114.61167969 -91.61964844 115.28585937 -92.35742188 115.98046875 C-93.75090449 117.29392456 -95.1429136 118.60894602 -96.53320312 119.92578125 C-106.81065445 129.61209763 -106.81065445 129.61209763 -114.375 130.3125 C-118.78083336 129.93268678 -120.6687156 128.87701835 -124 126 C-127.0572809 121.51598801 -127.93828926 117.29920183 -127 112 C-123.19962047 104.55125612 -116.21389117 99.13042932 -109.96875 93.75 C-107.49380743 91.55005105 -105.19286326 89.20618555 -102.87475586 86.84350586 C-101.06776312 85.06663359 -99.20655066 83.40563127 -97.28515625 81.75390625 C-93.0670729 78.08596557 -88.99306378 74.28340005 -84.9375 70.4375 C-83.43775066 69.02056798 -81.9377459 67.60390626 -80.4375 66.1875 C-79.69242187 65.48367188 -78.94734375 64.77984375 -78.1796875 64.0546875 C-74.9432475 61.0038498 -71.69153847 57.9695441 -68.4375 54.9375 C-63.28370915 50.13344287 -58.13836503 45.32055361 -53 40.5 C-45.34524773 33.32053673 -37.68299117 26.14924742 -30 19 C-29.10740479 18.16927979 -29.10740479 18.16927979 -28.19677734 17.32177734 C-8.39259123 -1.09073388 -8.39259123 -1.09073388 0 0 Z " fill="#FCBF43" transform="translate(447,362)"/>
<path d="M0 0 C2.90051736 1.57990758 5.04406072 3.33033357 7 6 C7.89220737 9.19847923 7.8327946 11.79285484 7 15 C4.47631975 18.67080764 2.82964117 19.75864984 -1.4375 21 C-5.55333147 21 -7.60229091 20.29147823 -11 18 C-12.93549813 15.53663875 -13.03037929 13.76564549 -13.4375 10.625 C-12.85406422 5.79081782 -11.44960332 4.36937999 -8 1 C-4.82132212 -0.05955929 -3.29749893 -0.5246021 0 0 Z " fill="#030202" transform="translate(187,91)"/>
</svg>
